<mxfile host="app.diagrams.net" modified="2020-06-27T10:40:30.652Z" agent="5.0 (Windows)" etag="1BKXrnWtdGxcjASkNnh5" version="13.3.5" type="github">
  <diagram id="vgvF30Syc6Q_ZYGfzPWI" name="Page-1">
    <mxGraphModel dx="1320" dy="513" grid="1" gridSize="10" guides="1" tooltips="1" connect="1" arrows="1" fold="1" page="1" pageScale="1" pageWidth="1169" pageHeight="1654" math="0" shadow="0">
      <root>
        <mxCell id="0" />
        <mxCell id="1" parent="0" />
        <mxCell id="UcCscGakwkdTYps6XA25-1" value="AWS Cloud" style="points=[[0,0],[0.25,0],[0.5,0],[0.75,0],[1,0],[1,0.25],[1,0.5],[1,0.75],[1,1],[0.75,1],[0.5,1],[0.25,1],[0,1],[0,0.75],[0,0.5],[0,0.25]];outlineConnect=0;gradientColor=none;html=1;whiteSpace=wrap;fontSize=12;fontStyle=0;shape=mxgraph.aws4.group;grIcon=mxgraph.aws4.group_aws_cloud_alt;strokeColor=#232F3E;fillColor=none;verticalAlign=top;align=left;spacingLeft=30;fontColor=#232F3E;dashed=0;" parent="1" vertex="1">
          <mxGeometry x="10" y="10" width="1050" height="480" as="geometry" />
        </mxCell>
        <mxCell id="UcCscGakwkdTYps6XA25-3" value="Region" style="points=[[0,0],[0.25,0],[0.5,0],[0.75,0],[1,0],[1,0.25],[1,0.5],[1,0.75],[1,1],[0.75,1],[0.5,1],[0.25,1],[0,1],[0,0.75],[0,0.5],[0,0.25]];outlineConnect=0;gradientColor=none;html=1;whiteSpace=wrap;fontSize=12;fontStyle=0;shape=mxgraph.aws4.group;grIcon=mxgraph.aws4.group_region;strokeColor=#147EBA;fillColor=none;verticalAlign=top;align=left;spacingLeft=30;fontColor=#147EBA;dashed=0;" parent="1" vertex="1">
          <mxGeometry x="30" y="40" width="1010" height="440" as="geometry" />
        </mxCell>
        <mxCell id="UcCscGakwkdTYps6XA25-4" value="VPC" style="points=[[0,0],[0.25,0],[0.5,0],[0.75,0],[1,0],[1,0.25],[1,0.5],[1,0.75],[1,1],[0.75,1],[0.5,1],[0.25,1],[0,1],[0,0.75],[0,0.5],[0,0.25]];outlineConnect=0;gradientColor=none;html=1;whiteSpace=wrap;fontSize=12;fontStyle=0;shape=mxgraph.aws4.group;grIcon=mxgraph.aws4.group_vpc;strokeColor=#248814;fillColor=none;verticalAlign=top;align=left;spacingLeft=30;fontColor=#AAB7B8;dashed=0;" parent="1" vertex="1">
          <mxGeometry x="70" y="60" width="460" height="400" as="geometry" />
        </mxCell>
        <mxCell id="UcCscGakwkdTYps6XA25-5" value="Availability Zone" style="fillColor=none;strokeColor=#147EBA;dashed=1;verticalAlign=top;fontStyle=0;fontColor=#147EBA;" parent="1" vertex="1">
          <mxGeometry x="100" y="90" width="190" height="210" as="geometry" />
        </mxCell>
        <mxCell id="UcCscGakwkdTYps6XA25-7" value="Private subnet" style="points=[[0,0],[0.25,0],[0.5,0],[0.75,0],[1,0],[1,0.25],[1,0.5],[1,0.75],[1,1],[0.75,1],[0.5,1],[0.25,1],[0,1],[0,0.75],[0,0.5],[0,0.25]];outlineConnect=0;gradientColor=none;html=1;whiteSpace=wrap;fontSize=12;fontStyle=0;shape=mxgraph.aws4.group;grIcon=mxgraph.aws4.group_security_group;grStroke=0;strokeColor=#147EBA;fillColor=#E6F2F8;verticalAlign=top;align=left;spacingLeft=30;fontColor=#147EBA;dashed=0;" parent="1" vertex="1">
          <mxGeometry x="100" y="120" width="170" height="150" as="geometry" />
        </mxCell>
        <mxCell id="UcCscGakwkdTYps6XA25-10" value="ap south-1" style="text;html=1;strokeColor=none;fillColor=none;align=center;verticalAlign=middle;whiteSpace=wrap;rounded=0;" parent="1" vertex="1">
          <mxGeometry x="970" y="460" width="70" height="20" as="geometry" />
        </mxCell>
        <mxCell id="UcCscGakwkdTYps6XA25-12" value="VPC 198.168.0.0/16" style="text;html=1;strokeColor=none;fillColor=none;align=center;verticalAlign=middle;whiteSpace=wrap;rounded=0;" parent="1" vertex="1">
          <mxGeometry x="380" y="440" width="190" height="20" as="geometry" />
        </mxCell>
        <mxCell id="UcCscGakwkdTYps6XA25-13" value="198.168.1.0/24" style="text;html=1;strokeColor=none;fillColor=none;align=center;verticalAlign=middle;whiteSpace=wrap;rounded=0;" parent="1" vertex="1">
          <mxGeometry x="175" y="110" width="40" height="20" as="geometry" />
        </mxCell>
        <mxCell id="UcCscGakwkdTYps6XA25-15" value="" style="outlineConnect=0;fontColor=#232F3E;gradientColor=#F78E04;gradientDirection=north;fillColor=#D05C17;strokeColor=#ffffff;dashed=0;verticalLabelPosition=bottom;verticalAlign=top;align=center;html=1;fontSize=12;fontStyle=0;aspect=fixed;shape=mxgraph.aws4.resourceIcon;resIcon=mxgraph.aws4.ec2;" parent="1" vertex="1">
          <mxGeometry x="120" y="160" width="54" height="54" as="geometry" />
        </mxCell>
        <mxCell id="f63GZmsRDv3eaGc_PIk6-2" value="Availability Zone" style="fillColor=none;strokeColor=#147EBA;dashed=1;verticalAlign=top;fontStyle=0;fontColor=#147EBA;" vertex="1" parent="1">
          <mxGeometry x="310" y="90" width="190" height="210" as="geometry" />
        </mxCell>
        <mxCell id="f63GZmsRDv3eaGc_PIk6-5" value="&lt;div&gt;198.168.2.0/24&lt;/div&gt;&lt;div&gt;&lt;br&gt;&lt;/div&gt;" style="text;html=1;strokeColor=none;fillColor=none;align=center;verticalAlign=middle;whiteSpace=wrap;rounded=0;" vertex="1" parent="1">
          <mxGeometry x="390" y="110" width="40" height="20" as="geometry" />
        </mxCell>
        <mxCell id="f63GZmsRDv3eaGc_PIk6-7" value="Public subnet" style="points=[[0,0],[0.25,0],[0.5,0],[0.75,0],[1,0],[1,0.25],[1,0.5],[1,0.75],[1,1],[0.75,1],[0.5,1],[0.25,1],[0,1],[0,0.75],[0,0.5],[0,0.25]];outlineConnect=0;gradientColor=none;html=1;whiteSpace=wrap;fontSize=12;fontStyle=0;shape=mxgraph.aws4.group;grIcon=mxgraph.aws4.group_security_group;grStroke=0;strokeColor=#248814;fillColor=#E9F3E6;verticalAlign=top;align=left;spacingLeft=30;fontColor=#248814;dashed=0;" vertex="1" parent="1">
          <mxGeometry x="310" y="120" width="170" height="150" as="geometry" />
        </mxCell>
        <mxCell id="f63GZmsRDv3eaGc_PIk6-9" value="" style="outlineConnect=0;fontColor=#232F3E;gradientColor=#F78E04;gradientDirection=north;fillColor=#D05C17;strokeColor=#ffffff;dashed=0;verticalLabelPosition=bottom;verticalAlign=top;align=center;html=1;fontSize=12;fontStyle=0;aspect=fixed;shape=mxgraph.aws4.resourceIcon;resIcon=mxgraph.aws4.ec2;" vertex="1" parent="1">
          <mxGeometry x="320" y="160" width="54" height="54" as="geometry" />
        </mxCell>
        <mxCell id="f63GZmsRDv3eaGc_PIk6-10" value="" style="outlineConnect=0;fontColor=#232F3E;gradientColor=none;fillColor=#5A30B5;strokeColor=none;dashed=0;verticalLabelPosition=bottom;verticalAlign=top;align=center;html=1;fontSize=12;fontStyle=0;aspect=fixed;pointerEvents=1;shape=mxgraph.aws4.internet_gateway;" vertex="1" parent="1">
          <mxGeometry x="50" y="270" width="40" height="40" as="geometry" />
        </mxCell>
        <mxCell id="f63GZmsRDv3eaGc_PIk6-16" style="edgeStyle=orthogonalEdgeStyle;rounded=0;orthogonalLoop=1;jettySize=auto;html=1;" edge="1" parent="1" source="f63GZmsRDv3eaGc_PIk6-11" target="UcCscGakwkdTYps6XA25-7">
          <mxGeometry relative="1" as="geometry" />
        </mxCell>
        <mxCell id="f63GZmsRDv3eaGc_PIk6-11" value="&lt;div&gt;Route table 1&lt;/div&gt;&lt;div align=&quot;left&quot;&gt;Target&amp;nbsp;&amp;nbsp;&amp;nbsp;&amp;nbsp;&amp;nbsp;&amp;nbsp;&amp;nbsp;&amp;nbsp;&amp;nbsp;&amp;nbsp;&amp;nbsp;&amp;nbsp;&amp;nbsp;&amp;nbsp;&amp;nbsp;&amp;nbsp; GW&lt;br&gt;&lt;/div&gt;&lt;div align=&quot;left&quot;&gt;198.168.0.0/16&amp;nbsp; local&lt;/div&gt;&lt;div align=&quot;left&quot;&gt;0.0.0/0&amp;nbsp;&amp;nbsp;&amp;nbsp;&amp;nbsp;&amp;nbsp;&amp;nbsp;&amp;nbsp;&amp;nbsp;&amp;nbsp;&amp;nbsp;&amp;nbsp;&amp;nbsp;&amp;nbsp;&amp;nbsp;&amp;nbsp;&amp;nbsp; NAT&lt;br&gt;&lt;/div&gt;" style="text;html=1;strokeColor=none;fillColor=none;align=center;verticalAlign=middle;whiteSpace=wrap;rounded=0;" vertex="1" parent="1">
          <mxGeometry x="120" y="350" width="130" height="60" as="geometry" />
        </mxCell>
        <mxCell id="f63GZmsRDv3eaGc_PIk6-19" style="edgeStyle=orthogonalEdgeStyle;rounded=0;orthogonalLoop=1;jettySize=auto;html=1;" edge="1" parent="1" source="f63GZmsRDv3eaGc_PIk6-12" target="f63GZmsRDv3eaGc_PIk6-7">
          <mxGeometry relative="1" as="geometry" />
        </mxCell>
        <mxCell id="f63GZmsRDv3eaGc_PIk6-12" value="&lt;div&gt;Route table 2&lt;br&gt;&lt;/div&gt;&lt;div align=&quot;left&quot;&gt;Target&amp;nbsp;&amp;nbsp;&amp;nbsp;&amp;nbsp;&amp;nbsp;&amp;nbsp;&amp;nbsp;&amp;nbsp;&amp;nbsp;&amp;nbsp;&amp;nbsp;&amp;nbsp;&amp;nbsp;&amp;nbsp;&amp;nbsp;&amp;nbsp; GW&lt;br&gt;&lt;/div&gt;&lt;div align=&quot;left&quot;&gt;198.168.0.0/16&amp;nbsp; local&lt;/div&gt;&lt;div align=&quot;left&quot;&gt;0.0.0/0 &amp;nbsp;&amp;nbsp;&amp;nbsp;&amp;nbsp;&amp;nbsp;&amp;nbsp;&amp;nbsp;&amp;nbsp;&amp;nbsp;&amp;nbsp;&amp;nbsp;&amp;nbsp;&amp;nbsp;&amp;nbsp;&amp;nbsp; IGW&lt;br&gt;&lt;/div&gt;&lt;div align=&quot;left&quot;&gt;172.168.0.0/16&amp;nbsp; PEERING&lt;br&gt;&lt;/div&gt;" style="text;html=1;strokeColor=none;fillColor=none;align=center;verticalAlign=middle;whiteSpace=wrap;rounded=0;" vertex="1" parent="1">
          <mxGeometry x="310" y="350" width="170" height="70" as="geometry" />
        </mxCell>
        <mxCell id="f63GZmsRDv3eaGc_PIk6-20" value="Pub-IP 13.53.65" style="text;html=1;strokeColor=none;fillColor=none;align=center;verticalAlign=middle;whiteSpace=wrap;rounded=0;" vertex="1" parent="1">
          <mxGeometry x="97" y="220" width="100" height="20" as="geometry" />
        </mxCell>
        <mxCell id="f63GZmsRDv3eaGc_PIk6-21" value="Pub-IP 13.63.65" style="text;html=1;strokeColor=none;fillColor=none;align=center;verticalAlign=middle;whiteSpace=wrap;rounded=0;" vertex="1" parent="1">
          <mxGeometry x="310" y="240" width="100" height="20" as="geometry" />
        </mxCell>
        <mxCell id="f63GZmsRDv3eaGc_PIk6-22" value="" style="rounded=1;whiteSpace=wrap;html=1;" vertex="1" parent="1">
          <mxGeometry x="1070" y="180" width="70" height="50" as="geometry" />
        </mxCell>
        <mxCell id="f63GZmsRDv3eaGc_PIk6-24" value="Client" style="text;html=1;strokeColor=none;fillColor=none;align=center;verticalAlign=middle;whiteSpace=wrap;rounded=0;" vertex="1" parent="1">
          <mxGeometry x="1085" y="197" width="40" height="20" as="geometry" />
        </mxCell>
        <mxCell id="f63GZmsRDv3eaGc_PIk6-25" value="" style="outlineConnect=0;dashed=0;verticalLabelPosition=bottom;verticalAlign=top;align=center;html=1;shape=mxgraph.aws3.vpc_nat_gateway;fillColor=#F58536;gradientColor=none;" vertex="1" parent="1">
          <mxGeometry x="420" y="166" width="50" height="42" as="geometry" />
        </mxCell>
        <mxCell id="f63GZmsRDv3eaGc_PIk6-27" value="Security group" style="fillColor=none;strokeColor=#DD3522;verticalAlign=top;fontStyle=0;fontColor=#DD3522;" vertex="1" parent="1">
          <mxGeometry x="310" y="140" width="80" height="100" as="geometry" />
        </mxCell>
        <mxCell id="f63GZmsRDv3eaGc_PIk6-28" value="" style="outlineConnect=0;fontColor=#232F3E;gradientColor=none;fillColor=#5A30B5;strokeColor=none;dashed=0;verticalLabelPosition=bottom;verticalAlign=top;align=center;html=1;fontSize=12;fontStyle=0;aspect=fixed;pointerEvents=1;shape=mxgraph.aws4.network_access_control_list;" vertex="1" parent="1">
          <mxGeometry x="250" y="100" width="40" height="40" as="geometry" />
        </mxCell>
        <mxCell id="f63GZmsRDv3eaGc_PIk6-29" style="edgeStyle=orthogonalEdgeStyle;rounded=0;orthogonalLoop=1;jettySize=auto;html=1;exitX=1;exitY=0.5;exitDx=0;exitDy=0;entryX=1;entryY=0.75;entryDx=0;entryDy=0;" edge="1" parent="1" source="UcCscGakwkdTYps6XA25-13" target="UcCscGakwkdTYps6XA25-13">
          <mxGeometry relative="1" as="geometry" />
        </mxCell>
        <mxCell id="f63GZmsRDv3eaGc_PIk6-30" value="" style="outlineConnect=0;fontColor=#232F3E;gradientColor=#F78E04;gradientDirection=north;fillColor=#D05C17;strokeColor=#ffffff;dashed=0;verticalLabelPosition=bottom;verticalAlign=top;align=center;html=1;fontSize=12;fontStyle=0;aspect=fixed;shape=mxgraph.aws4.resourceIcon;resIcon=mxgraph.aws4.ec2;" vertex="1" parent="1">
          <mxGeometry x="196" y="163" width="54" height="54" as="geometry" />
        </mxCell>
        <mxCell id="f63GZmsRDv3eaGc_PIk6-31" value="VPC" style="points=[[0,0],[0.25,0],[0.5,0],[0.75,0],[1,0],[1,0.25],[1,0.5],[1,0.75],[1,1],[0.75,1],[0.5,1],[0.25,1],[0,1],[0,0.75],[0,0.5],[0,0.25]];outlineConnect=0;gradientColor=none;html=1;whiteSpace=wrap;fontSize=12;fontStyle=0;shape=mxgraph.aws4.group;grIcon=mxgraph.aws4.group_vpc;strokeColor=#248814;fillColor=none;verticalAlign=top;align=left;spacingLeft=30;fontColor=#AAB7B8;dashed=0;" vertex="1" parent="1">
          <mxGeometry x="640" y="60" width="400" height="400" as="geometry" />
        </mxCell>
        <mxCell id="f63GZmsRDv3eaGc_PIk6-32" value="VPC 172.31.0.0/16" style="text;html=1;strokeColor=none;fillColor=none;align=center;verticalAlign=middle;whiteSpace=wrap;rounded=0;" vertex="1" parent="1">
          <mxGeometry x="890" y="440" width="190" height="20" as="geometry" />
        </mxCell>
        <mxCell id="f63GZmsRDv3eaGc_PIk6-33" value="Availability Zone" style="fillColor=none;strokeColor=#147EBA;dashed=1;verticalAlign=top;fontStyle=0;fontColor=#147EBA;" vertex="1" parent="1">
          <mxGeometry x="670" y="95" width="180" height="185" as="geometry" />
        </mxCell>
        <mxCell id="f63GZmsRDv3eaGc_PIk6-35" value="172.31.1.0/24" style="text;html=1;strokeColor=none;fillColor=none;align=center;verticalAlign=middle;whiteSpace=wrap;rounded=0;" vertex="1" parent="1">
          <mxGeometry x="790" y="110" width="40" height="20" as="geometry" />
        </mxCell>
        <mxCell id="f63GZmsRDv3eaGc_PIk6-43" style="edgeStyle=orthogonalEdgeStyle;rounded=0;orthogonalLoop=1;jettySize=auto;html=1;entryX=0.5;entryY=1;entryDx=0;entryDy=0;" edge="1" parent="1" source="f63GZmsRDv3eaGc_PIk6-38" target="f63GZmsRDv3eaGc_PIk6-40">
          <mxGeometry relative="1" as="geometry" />
        </mxCell>
        <mxCell id="f63GZmsRDv3eaGc_PIk6-38" value="&lt;div&gt;Route table 1&lt;br&gt;&lt;/div&gt;&lt;div align=&quot;left&quot;&gt;Target&amp;nbsp;&amp;nbsp;&amp;nbsp;&amp;nbsp;&amp;nbsp;&amp;nbsp;&amp;nbsp;&amp;nbsp;&amp;nbsp;&amp;nbsp;&amp;nbsp;&amp;nbsp;&amp;nbsp;&amp;nbsp;&amp;nbsp;&amp;nbsp; GW&lt;br&gt;&lt;/div&gt;&lt;div align=&quot;left&quot;&gt;198.168.0.0/16&amp;nbsp; local&lt;/div&gt;&lt;div align=&quot;left&quot;&gt;198.168.0.0/16&amp;nbsp; PEERING&lt;br&gt;&lt;/div&gt;&lt;div align=&quot;left&quot;&gt;&lt;br&gt;&lt;/div&gt;" style="text;html=1;strokeColor=none;fillColor=none;align=center;verticalAlign=middle;whiteSpace=wrap;rounded=0;" vertex="1" parent="1">
          <mxGeometry x="670" y="341" width="170" height="60" as="geometry" />
        </mxCell>
        <mxCell id="f63GZmsRDv3eaGc_PIk6-40" value="Private subnet" style="points=[[0,0],[0.25,0],[0.5,0],[0.75,0],[1,0],[1,0.25],[1,0.5],[1,0.75],[1,1],[0.75,1],[0.5,1],[0.25,1],[0,1],[0,0.75],[0,0.5],[0,0.25]];outlineConnect=0;gradientColor=none;html=1;whiteSpace=wrap;fontSize=12;fontStyle=0;shape=mxgraph.aws4.group;grIcon=mxgraph.aws4.group_security_group;grStroke=0;strokeColor=#147EBA;fillColor=#E6F2F8;verticalAlign=top;align=left;spacingLeft=30;fontColor=#147EBA;dashed=0;" vertex="1" parent="1">
          <mxGeometry x="690" y="130" width="130" height="130" as="geometry" />
        </mxCell>
        <mxCell id="f63GZmsRDv3eaGc_PIk6-42" value="" style="outlineConnect=0;fontColor=#232F3E;gradientColor=#F78E04;gradientDirection=north;fillColor=#D05C17;strokeColor=#ffffff;dashed=0;verticalLabelPosition=bottom;verticalAlign=top;align=center;html=1;fontSize=12;fontStyle=0;aspect=fixed;shape=mxgraph.aws4.resourceIcon;resIcon=mxgraph.aws4.ec2;" vertex="1" parent="1">
          <mxGeometry x="728" y="168" width="54" height="54" as="geometry" />
        </mxCell>
        <mxCell id="f63GZmsRDv3eaGc_PIk6-44" value="Security group" style="fillColor=none;strokeColor=#DD3522;verticalAlign=top;fontStyle=0;fontColor=#DD3522;" vertex="1" parent="1">
          <mxGeometry x="710" y="150" width="90" height="75" as="geometry" />
        </mxCell>
        <mxCell id="f63GZmsRDv3eaGc_PIk6-46" style="edgeStyle=orthogonalEdgeStyle;rounded=0;orthogonalLoop=1;jettySize=auto;html=1;" edge="1" parent="1" source="f63GZmsRDv3eaGc_PIk6-45" target="UcCscGakwkdTYps6XA25-4">
          <mxGeometry relative="1" as="geometry" />
        </mxCell>
        <mxCell id="f63GZmsRDv3eaGc_PIk6-48" style="edgeStyle=orthogonalEdgeStyle;rounded=0;orthogonalLoop=1;jettySize=auto;html=1;entryX=0;entryY=0.5;entryDx=0;entryDy=0;" edge="1" parent="1" source="f63GZmsRDv3eaGc_PIk6-45" target="f63GZmsRDv3eaGc_PIk6-31">
          <mxGeometry relative="1" as="geometry" />
        </mxCell>
        <mxCell id="f63GZmsRDv3eaGc_PIk6-45" value="" style="outlineConnect=0;fontColor=#232F3E;gradientColor=none;fillColor=#5A30B5;strokeColor=none;dashed=0;verticalLabelPosition=bottom;verticalAlign=top;align=center;html=1;fontSize=12;fontStyle=0;aspect=fixed;pointerEvents=1;shape=mxgraph.aws4.peering;" vertex="1" parent="1">
          <mxGeometry x="561" y="236" width="48" height="48" as="geometry" />
        </mxCell>
        <mxCell id="f63GZmsRDv3eaGc_PIk6-49" value="" style="rounded=1;whiteSpace=wrap;html=1;" vertex="1" parent="1">
          <mxGeometry x="1070" y="110" width="70" height="50" as="geometry" />
        </mxCell>
        <mxCell id="f63GZmsRDv3eaGc_PIk6-50" value="Client" style="text;html=1;strokeColor=none;fillColor=none;align=center;verticalAlign=middle;whiteSpace=wrap;rounded=0;" vertex="1" parent="1">
          <mxGeometry x="1085" y="130" width="40" height="20" as="geometry" />
        </mxCell>
        <mxCell id="f63GZmsRDv3eaGc_PIk6-51" value="Dhyanio Project" style="text;html=1;strokeColor=none;fillColor=none;align=center;verticalAlign=middle;whiteSpace=wrap;rounded=0;" vertex="1" parent="1">
          <mxGeometry x="360" y="20" width="164" height="24" as="geometry" />
        </mxCell>
      </root>
    </mxGraphModel>
  </diagram>
</mxfile>
